<svg xmlns="http://www.w3.org/2000/svg" width="64" height="64" fill="none">
<defs>
<linearGradient id="A" x1="8.688" y1="30.979" x2="51.085" y2="30.979" gradientUnits="userSpaceOnUse">
<stop offset="0" stop-color="#06f"/>
<stop offset="1" stop-color="#00c7ff"/>
</linearGradient>
</defs>
<g transform="translate(2.038 1.045)">
<rect width="64" height="64" x="-2.038" y="-1.045" rx="14.144" fill="#000"/>
<path d="M21.838 11.391l12.074-1.153-.179 8.381q-.035 3.05-.7 6.991 1.975-1.241 2.593-1.688 2.172-1.481 3.321-2.145l7.243-4.347 4.894 11.221-8.243 2.56q-2.252.658-6.771 1.256 3.294 2.123 5.289 3.926l6.284 5.659L38.53 50.4l-4.763-7.023q-1.029-1.508-3.443-5.931-1.64 5.253-2.239 6.473l-3.378 7.801-10.827-6.444 5.517-6.786q2.317-2.825 4.6-4.871-2.535.02-6.707-.357l-8.602-.563 2.809-11.956 7.93 2.733q1.255.434 6.286 2.834-1.486-4.511-1.978-6.735z" fill="url(#A)"/>
</g>
</svg> 